<svg width="53" height="53" viewBox="0 0 53 53" fill="none" xmlns="http://www.w3.org/2000/svg">
<path d="M16.5625 11.5938H36.4375V21.5312H16.5625V11.5938ZM41.4062 24.8438H11.5938V34.7812H41.4062V24.8438ZM44.7188 36.4375H8.28125V49.6875H21.5114L26.4917 47.2694L31.4737 49.6875H44.7188V36.4375Z" fill="#E1D8EC"/>
<path d="M40.7901 10.335C41.0355 10.171 41.2215 9.93234 41.3208 9.65439C41.42 9.37644 41.4271 9.07394 41.3411 8.79162C41.2551 8.5093 41.0806 8.26214 40.8432 8.08672C40.6059 7.91129 40.3184 7.8169 40.0233 7.8175C39.7499 7.81381 39.482 7.89481 39.2565 8.04938C38.5676 8.50048 37.7627 8.74212 36.9394 8.745C35.5067 8.745 34.0906 8.01625 33.2906 6.625L32.1081 4.32281C31.9485 4.01883 31.709 3.76413 31.4154 3.58611C31.1218 3.40809 30.7852 3.3135 30.4419 3.3125H22.6906C22.0066 3.3125 21.3905 3.67687 21.0576 4.25656L19.7094 6.625C19.343 7.26979 18.812 7.80579 18.1707 8.17825C17.5293 8.5507 16.8007 8.74628 16.059 8.745C15.2607 8.745 14.4607 8.51313 13.7436 8.04938C13.5227 7.89804 13.2611 7.8172 12.9933 7.8175C12.8107 7.8142 12.6293 7.84732 12.4596 7.91492C12.2899 7.98253 12.1354 8.08326 12.0052 8.21125C11.8749 8.33923 11.7714 8.49189 11.7007 8.66032C11.6301 8.82874 11.5937 9.00955 11.5938 9.19219C11.5938 9.65594 11.8256 10.0866 12.2099 10.335L15.5439 12.5544C16.2429 13.0016 17.0428 13.25 17.8759 13.25H35.1407C35.9406 13.25 36.7406 13.0016 37.423 12.5544L40.7901 10.335ZM47.2031 22.4587C47.2031 22.9225 46.9713 23.3531 46.587 23.6016L43.2596 25.8044C42.5789 26.2516 41.7806 26.5 40.9475 26.5H12.0526C11.2303 26.4965 10.4267 26.2549 9.73877 25.8044L6.41302 23.6016C6.22307 23.4777 6.06718 23.3082 5.95955 23.1085C5.85193 22.9089 5.79601 22.6855 5.7969 22.4587C5.7969 21.6472 6.46271 21.0675 7.19477 21.0675C7.44321 21.0675 7.70986 21.1503 7.95996 21.2994C8.76256 21.8286 9.72247 22.0663 10.6793 21.9729C11.6361 21.8794 12.5319 21.4604 13.2169 20.7859C13.7982 20.2063 14.5966 19.875 15.4296 19.875H37.5886C38.42 19.875 39.2184 20.2063 39.7997 20.7859C40.598 21.5809 41.663 21.995 42.7445 21.995C43.5428 21.995 44.3411 21.7631 45.0566 21.2994C45.3067 21.1337 45.5568 21.0675 45.8218 21.0675C46.5373 21.0675 47.2031 21.6472 47.2031 22.4587ZM49.6875 35.7087C49.6875 36.1725 49.4556 36.6031 49.0747 36.8516L45.7622 39.0544C45.0831 39.5016 44.2881 39.75 43.46 39.75H9.54002C8.72846 39.75 7.9169 39.5016 7.23783 39.0544L3.92533 36.8516C3.736 36.7273 3.58075 36.5576 3.47372 36.358C3.36669 36.1584 3.31128 35.9352 3.31252 35.7087C3.31252 34.8972 3.97502 34.3175 4.70377 34.3175C4.95221 34.3175 5.21721 34.4003 5.46565 34.5494C6.16127 35.0131 6.97283 35.245 7.76783 35.245C8.8444 35.245 9.9044 34.8309 10.6994 34.0359C11.2791 33.4562 12.0741 33.125 12.9022 33.125H40.1144C40.9425 33.125 41.7375 33.4562 42.3172 34.0359C43.1122 34.8309 44.1722 35.245 45.2488 35.245C46.0438 35.245 46.8388 35.0131 47.551 34.5494C47.7751 34.3958 48.0411 34.3148 48.3128 34.3175C49.0085 34.3175 49.6875 34.8972 49.6875 35.7087Z" fill="#F8312F"/>
<path d="M22.4754 18.2188H20.5872C20.1897 18.2188 19.875 17.9041 19.875 17.5066V15.6184C19.875 15.2209 20.1897 14.9062 20.5872 14.9062H22.4754C22.8729 14.9062 23.1875 15.2209 23.1875 15.6184V17.5066C23.1898 17.6007 23.1729 17.6943 23.138 17.7818C23.103 17.8692 23.0506 17.9486 22.984 18.0152C22.9174 18.0818 22.838 18.1342 22.7506 18.1692C22.6631 18.2041 22.5695 18.221 22.4754 18.2188ZM17.5066 31.4688H15.6185C15.221 31.4688 14.9063 31.1541 14.9063 30.7566V28.8684C14.9063 28.4709 15.221 28.1562 15.6185 28.1562H17.5066C17.9041 28.1562 18.2188 28.4709 18.2188 28.8684V30.7566C18.2211 30.8507 18.2042 30.9443 18.1692 31.0318C18.1342 31.1192 18.0818 31.1986 18.0152 31.2652C17.9487 31.3318 17.8692 31.3842 17.7818 31.4192C17.6944 31.4541 17.6007 31.471 17.5066 31.4688ZM12.8525 46.375H16.9932C17.6722 46.375 18.2354 45.8284 18.2354 45.1328V42.6484C18.2354 41.9694 17.6722 41.4062 16.9932 41.4062H12.8525C12.1735 41.4062 11.6104 41.9694 11.6104 42.6484V45.1328C11.6104 45.8119 12.1735 46.375 12.8525 46.375ZM21.5313 49.6875H31.4688V43.0791C31.4688 42.1516 30.7235 41.4062 29.796 41.4062H23.2041C22.2766 41.4062 21.5313 42.1516 21.5313 43.0791V49.6875ZM25.556 31.4688H27.4441C27.8416 31.4688 28.1729 31.1541 28.1563 30.7566V28.8684C28.1563 28.4709 27.8416 28.1562 27.4441 28.1562H25.556C25.1585 28.1562 24.8438 28.4709 24.8438 28.8684V30.7566C24.8438 31.1541 25.1585 31.4688 25.556 31.4688ZM30.5247 18.2188H32.4129C32.8104 18.2188 33.1416 17.9041 33.125 17.5066V15.6184C33.125 15.2209 32.8104 14.9062 32.4129 14.9062H30.5247C30.1272 14.9062 29.8125 15.2209 29.8125 15.6184V17.5066C29.8125 17.9041 30.1272 18.2188 30.5247 18.2188ZM37.3816 31.4688H35.4935C35.096 31.4688 34.7813 31.1541 34.7813 30.7566V28.8684C34.7813 28.4709 35.096 28.1562 35.4935 28.1562H37.3816C37.7791 28.1562 38.0938 28.4709 38.0938 28.8684V30.7566C38.0961 30.8507 38.0792 30.9443 38.0442 31.0318C38.0092 31.1192 37.9568 31.1986 37.8902 31.2652C37.8237 31.3318 37.7442 31.3842 37.6568 31.4192C37.5694 31.4541 37.4757 31.471 37.3816 31.4688ZM36.04 46.375H40.1807C40.8597 46.375 41.4229 45.8284 41.4229 45.1328V42.6484C41.4229 41.9694 40.8597 41.4062 40.1807 41.4062H36.04C35.361 41.4062 34.7979 41.9694 34.7979 42.6484V45.1328C34.7979 45.8119 35.361 46.375 36.04 46.375Z" fill="#321B41"/>
</svg>
