<svg width="30" height="30" viewBox="0 0 30 30" fill="none" xmlns="http://www.w3.org/2000/svg">
<path d="M3.75 12.5H3.125C3.125 12.6658 3.19085 12.8247 3.30806 12.9419C3.42527 13.0592 3.58424 13.125 3.75 13.125V12.5ZM3.75 17.5V16.875C3.58424 16.875 3.42527 16.9408 3.30806 17.0581C3.19085 17.1753 3.125 17.3342 3.125 17.5H3.75ZM26.25 12.5V13.125C26.4158 13.125 26.5747 13.0592 26.6919 12.9419C26.8092 12.8247 26.875 12.6658 26.875 12.5H26.25ZM26.25 17.5H26.875C26.875 17.3342 26.8092 17.1753 26.6919 17.0581C26.5747 16.9408 26.4158 16.875 26.25 16.875V17.5ZM6.25 6.875H12.5V5.625H6.25V6.875ZM12.5 6.875H23.75V5.625H12.5V6.875ZM23.75 23.125H12.5V24.375H23.75V23.125ZM12.5 23.125H6.25V24.375H12.5V23.125ZM11.875 6.25V23.75H13.125V6.25H11.875ZM5.075 13.675C5.42613 14.0266 5.62335 14.5031 5.62335 15C5.62335 15.4969 5.42613 15.9734 5.075 16.325L5.96 17.21C6.25027 16.9198 6.48053 16.5753 6.63763 16.1961C6.79472 15.8169 6.87558 15.4104 6.87558 15C6.87558 14.5896 6.79472 14.1831 6.63763 13.8039C6.48053 13.4247 6.25027 13.0802 5.96 12.79L5.075 13.675ZM24.925 16.325C24.5739 15.9734 24.3766 15.4969 24.3766 15C24.3766 14.5031 24.5739 14.0266 24.925 13.675L24.04 12.79C23.7497 13.0802 23.5195 13.4247 23.3624 13.8039C23.2053 14.1831 23.1244 14.5896 23.1244 15C23.1244 15.4104 23.2053 15.8169 23.3624 16.1961C23.5195 16.5753 23.7497 16.9198 24.04 17.21L24.925 16.325ZM3.75 13.125C4.23125 13.125 4.71 13.3075 5.075 13.675L5.96 12.79C5.66976 12.4998 5.3252 12.2697 4.94601 12.1127C4.56681 11.9557 4.16041 11.8749 3.75 11.875V13.125ZM4.375 12.5V8.75H3.125V12.5H4.375ZM4.375 21.25V17.5H3.125V21.25H4.375ZM5.075 16.325C4.71 16.6925 4.23125 16.875 3.75 16.875V18.125C4.54875 18.125 5.35 17.82 5.96 17.21L5.075 16.325ZM24.925 13.675C25.29 13.3075 25.7687 13.125 26.25 13.125V11.875C25.4513 11.875 24.65 12.18 24.04 12.79L24.925 13.675ZM25.625 8.75V12.5H26.875V8.75H25.625ZM25.625 17.5V21.25H26.875V17.5H25.625ZM26.25 16.875C25.7687 16.875 25.29 16.6925 24.925 16.325L24.04 17.21C24.3302 17.5002 24.6748 17.7303 25.054 17.8873C25.4332 18.0443 25.8396 18.1251 26.25 18.125V16.875ZM6.25 23.125C5.75272 23.125 5.27581 22.9275 4.92417 22.5758C4.57254 22.2242 4.375 21.7473 4.375 21.25H3.125C3.125 22.0788 3.45424 22.8737 4.04029 23.4597C4.62634 24.0458 5.4212 24.375 6.25 24.375V23.125ZM23.75 24.375C24.5788 24.375 25.3737 24.0458 25.9597 23.4597C26.5458 22.8737 26.875 22.0788 26.875 21.25H25.625C25.625 21.7473 25.4275 22.2242 25.0758 22.5758C24.7242 22.9275 24.2473 23.125 23.75 23.125V24.375ZM23.75 6.875C24.2473 6.875 24.7242 7.07254 25.0758 7.42417C25.4275 7.77581 25.625 8.25272 25.625 8.75H26.875C26.875 7.9212 26.5458 7.12634 25.9597 6.54029C25.3737 5.95424 24.5788 5.625 23.75 5.625V6.875ZM6.25 5.625C5.4212 5.625 4.62634 5.95424 4.04029 6.54029C3.45424 7.12634 3.125 7.9212 3.125 8.75H4.375C4.375 8.25272 4.57254 7.77581 4.92417 7.42417C5.27581 7.07254 5.75272 6.875 6.25 6.875V5.625Z" fill="black"/>
</svg>
