<svg width="23" height="23" viewBox="0 0 23 23" fill="none" xmlns="http://www.w3.org/2000/svg">
<path d="M12.7159 3.51596C13.0035 3.2285 13.3934 3.06702 13.8 3.06702C14.2066 3.06702 14.5965 3.2285 14.8841 3.51596L21.7841 10.416C22.0715 10.7035 22.233 11.0934 22.233 11.5C22.233 11.9066 22.0715 12.2965 21.7841 12.5841L14.8841 19.4841C14.5949 19.7634 14.2075 19.9179 13.8055 19.9145C13.4035 19.911 13.0189 19.7497 12.7346 19.4654C12.4503 19.1811 12.2891 18.7965 12.2856 18.3945C12.2821 17.9925 12.4366 17.6051 12.7159 17.316L16.8667 13.0334H2.3C1.89333 13.0334 1.50332 12.8718 1.21577 12.5843C0.92821 12.2967 0.766663 11.9067 0.766663 11.5C0.766663 11.0934 0.92821 10.7033 1.21577 10.4158C1.50332 10.1282 1.89333 9.96669 2.3 9.96669H16.8667L12.7159 5.68409C12.4285 5.39655 12.267 5.00661 12.267 4.60002C12.267 4.19344 12.4285 3.8035 12.7159 3.51596Z" fill="black"/>
</svg>
