<svg width="50" height="50" viewBox="0 0 50 50" fill="none" xmlns="http://www.w3.org/2000/svg">
<path d="M29.4458 14.5667L36.5208 7.48958C37.3173 6.70602 38.3912 6.26892 39.5084 6.27349C40.6257 6.27806 41.696 6.72393 42.486 7.51398C43.2761 8.30403 43.7219 9.37426 43.7265 10.4915C43.7311 11.6088 43.294 12.6827 42.5104 13.4792L35.4333 20.5542L39.2625 39.6062C39.7521 42.0437 35.025 45.4396 33.7667 42.2104L28.1625 27.8271L20.8854 35.1042C21.2396 39.3562 21.3167 40.7708 18.3354 43.75L13.8042 36.1958L6.25 31.6646C9.22917 28.6833 10.6438 28.7583 14.8958 29.1146L22.1729 21.8396L7.78958 16.2333C4.56042 14.975 7.95625 10.2458 10.3937 10.7375L29.4458 14.5667Z" stroke="black" stroke-width="1.5" stroke-linecap="round" stroke-linejoin="round"/>
</svg>
