<svg width="58" height="58" viewBox="0 0 58 58" fill="none" xmlns="http://www.w3.org/2000/svg">
<path d="M30.2461 26.458L30.0195 11.8764C30.0195 11.8764 29.7295 2.74593 29.7295 2.02093C29.7295 1.29593 29.5845 0.666089 29.1858 0.629839C28.787 0.593589 28.3928 0.892652 28.3566 1.87593C28.3203 2.85921 28.13 11.5909 28.13 11.5909C28.13 11.5909 26.9111 11.5819 26.8884 11.7586C26.8386 12.1211 26.603 19.4617 26.3492 22.2258C26.0955 24.9898 25.0488 32.0812 23.7392 35.5431C23.0867 37.265 21.6095 40.7586 20.1641 43.2327C18.7095 45.7294 16.8109 48.3756 15.6736 49.9661C13.408 53.1334 12.103 54.2617 12.4745 54.6197C12.6467 54.7873 17.1689 54.6967 17.1689 54.6967C17.1689 54.6967 20.0644 50.6911 20.7667 49.6534C21.7138 48.2533 22.8828 47.3561 24.3419 47.5827C25.3478 47.7412 26.1906 48.4572 26.3991 50.0839C26.6755 52.1955 26.757 55.7298 27.0153 55.9292C27.4095 56.2419 30.1827 56.2373 30.1827 56.2373L30.2461 26.458ZM27.1241 45.7702C26.6755 45.9786 25.6786 45.3759 24.6545 45.2445C23.6305 45.1131 22.8692 45.5345 22.3436 45.0361C21.818 44.5377 22.552 43.1964 23.2091 41.9367C23.8661 40.677 25.2844 38.3661 26.0184 38.5247C26.8024 38.6923 27.0697 40.7314 27.3053 42.4623C27.4413 43.4502 27.5681 45.5572 27.1241 45.7702ZM26.2042 37.4462C25.9686 37.4191 25.2663 35.6791 25.4702 35.4752C25.6786 35.2667 27.4141 35.448 27.5183 35.6836C27.6225 35.9192 26.4399 37.4734 26.2042 37.4462ZM26.7027 34.2925C26.0184 34.2653 25.7375 33.8439 25.7828 33.4542C25.8599 32.7972 26.313 32.6114 26.8613 32.7202C27.4367 32.8334 27.5999 33.1687 27.6225 33.5584C27.6497 33.9798 27.3869 34.3197 26.7027 34.2925Z" fill="#EE3E23"/>
<path d="M23.6758 40.5184L26.6166 46.2459L27.7177 45.5119L24.2648 38.9008C24.2694 38.9008 23.9069 40.0562 23.6758 40.5184Z" fill="#EE3E23"/>
<path d="M27.1739 39.7798L21.6866 44.9817L22.5792 45.743L27.6497 41.1483L27.1739 39.7798Z" fill="#EE3E23"/>
<path d="M29.145 12.8688L26.8295 12.9141C26.8295 12.9141 26.7616 14.3596 26.7344 14.8353C26.7072 15.3066 26.6755 16.521 26.6755 16.521H29.4078L29.145 12.8688Z" fill="#E3E1DF"/>
<path d="M28.207 7.5717H29.9153L29.7839 3.5253H28.2886L28.207 7.5717Z" fill="#C9C7CA"/>
<path d="M29.145 20.7713L26.4534 20.7214C26.4534 20.7214 26.4127 21.6096 26.3084 22.6064C26.2314 23.3496 26.0456 24.5775 26.0456 24.5775L29.6706 24.6047L29.145 20.7713Z" fill="#E3E1DF"/>
<path d="M29.3851 28.5151C29.3851 28.5151 23.1819 28.5469 22.919 28.5469C22.6562 28.5469 22.1669 28.9275 22.7605 29.7839C23.1819 30.3911 24.4461 31.9544 24.6817 32.0133C24.9173 32.0722 29.512 32.0133 29.512 32.0133L29.3851 28.5151Z" fill="#C9C7CA"/>
<path d="M46.033 53.7859C45.8336 53.5458 43.7039 50.9539 41.8642 48.2986C40.0245 45.6433 38.2302 42.8566 37.2106 40.8945C35.167 36.9659 34.4919 34.587 33.3998 30.3775C32.838 28.2116 32.1945 25.7919 31.6961 19.0584C31.2339 12.8053 31.5148 11.7042 31.2611 11.6816C31.0527 11.6589 29.0091 11.6136 29.0091 11.6136C29.0091 11.6136 29.0861 19.5659 29.1495 26.5305C29.213 33.35 29.5166 56.2283 29.5166 56.2283C29.5166 56.2283 29.8473 56.2419 30.2869 56.2419C31.0844 56.2373 32.2398 56.2011 32.3803 56.0697C32.625 55.8341 32.6431 51.3436 32.7655 49.6308C32.9014 47.7186 34.9631 46.4272 37.043 48.362C39.3675 50.528 41.6739 54.6741 41.9548 54.878C42.3083 55.1317 45.9197 54.9187 46.3638 54.9187C46.7942 54.9051 46.4317 54.2662 46.033 53.7859ZM31.4514 32.6477C31.9861 32.4981 32.5797 32.7337 32.6794 33.1506C32.7745 33.5675 32.702 34.1112 31.9136 34.2019C31.2747 34.2744 30.9348 34.0931 30.8533 33.572C30.7763 33.0781 31.0663 32.7564 31.4514 32.6477ZM31.1025 35.7062C31.2339 35.3891 32.8063 35.1126 33.0102 35.4072C33.2141 35.7017 32.8334 37.3964 32.3803 37.4191C31.9272 37.4372 31.0028 35.9419 31.1025 35.7062ZM36.5264 44.9228C36.1186 45.3306 35.6972 45.1176 34.1838 45.4076C32.6703 45.6977 32.267 46.1145 31.7142 46.0239C31.1614 45.9378 31.2248 44.7098 31.3698 42.5575C31.5148 40.4051 31.9997 38.6334 32.7066 38.5066C33.6627 38.3389 34.6867 40.4641 35.2667 41.538C35.8467 42.6119 36.9342 44.515 36.5264 44.9228Z" fill="#CD3001"/>
<path d="M34.6777 39.1228L31.1252 46.4317L32.6703 46.4589L35.6066 40.1151L34.6777 39.1228Z" fill="#CD3001"/>
<path d="M31.388 39.3856L37.4734 45.3216L35.9283 45.5572L30.8034 40.7223L31.388 39.3856Z" fill="#CD3001"/>
<path d="M29.0181 12.8733L31.397 12.8778L31.5284 16.4756L29.0317 16.53L29.0181 12.8733ZM29.0906 20.7577L31.8366 20.7849L32.0178 22.5838C32.1039 23.4084 32.2489 24.5775 32.2489 24.5775L29.1133 24.5956L29.0906 20.7577Z" fill="#C9C7CA"/>
<path d="M29.1677 28.5152C29.1677 28.5152 34.4511 28.5016 34.9677 28.5016C35.4978 28.5016 35.7289 28.8142 35.5567 29.2085C35.3845 29.5981 34.0252 31.5556 33.8213 31.9C33.7623 31.9997 29.2039 32.0133 29.2039 32.0133L29.1677 28.5152Z" fill="#AFB1B0"/>
</svg>
